<svg width="400" height="150" viewBox="0 0 400 150" fill="none" xmlns="http://www.w3.org/2000/svg">
<path d="M72.1346 61.4604V55.1467H79.0197V61.4604H72.1346ZM72.1346 97V66.1457H79.0197V97H72.1346ZM108.918 97V82.1442C108.918 81.1729 108.852 80.0968 108.718 78.9159C108.585 77.7351 108.271 76.6019 107.776 75.5162C107.299 74.4116 106.576 73.5069 105.604 72.8022C104.652 72.0975 103.357 71.7452 101.719 71.7452C100.843 71.7452 99.9763 71.888 99.1192 72.1737C98.2621 72.4594 97.4813 72.9546 96.7766 73.6593C96.0909 74.3449 95.5386 75.2972 95.1196 76.5161C94.7006 77.716 94.4911 79.2588 94.4911 81.1443L90.4057 79.4016C90.4057 76.7733 90.9104 74.3925 91.9199 72.2594C92.9483 70.1263 94.453 68.4312 96.4337 67.1741C98.4145 65.8981 100.852 65.26 103.747 65.26C106.033 65.26 107.918 65.6409 109.404 66.4028C110.89 67.1646 112.07 68.136 112.947 69.3168C113.823 70.4976 114.47 71.7547 114.889 73.0879C115.308 74.4211 115.575 75.6877 115.689 76.8875C115.822 78.0684 115.889 79.0302 115.889 79.773V97H108.918ZM87.5203 97V66.1457H93.6626V75.7162H94.4911V97H87.5203ZM141.428 97C139.39 97.3809 137.391 97.5428 135.429 97.4857C133.486 97.4476 131.743 97.0952 130.201 96.4286C128.658 95.743 127.487 94.6669 126.687 93.2003C125.982 91.8671 125.611 90.5054 125.573 89.115C125.535 87.7247 125.515 86.1534 125.515 84.4011V57.575H132.372V84.0012C132.372 85.2392 132.382 86.3248 132.401 87.258C132.439 88.1913 132.639 88.9531 133.001 89.5435C133.686 90.6863 134.781 91.3243 136.286 91.4576C137.791 91.591 139.505 91.5148 141.428 91.2291V97ZM119.916 71.5452V66.1457H141.428V71.5452H119.916ZM160.528 97.8571C157.404 97.8571 154.662 97.1809 152.3 95.8287C149.938 94.4764 148.091 92.6004 146.758 90.2006C145.444 87.8008 144.786 85.0392 144.786 81.9157C144.786 78.5445 145.434 75.621 146.729 73.145C148.024 70.65 149.824 68.7169 152.129 67.3456C154.433 65.9743 157.1 65.2886 160.128 65.2886C163.328 65.2886 166.042 66.0409 168.27 67.5455C170.517 69.0311 172.184 71.1357 173.27 73.8592C174.355 76.5828 174.765 79.792 174.498 83.4869H167.67V80.9729C167.651 77.6208 167.061 75.1734 165.899 73.6307C164.737 72.088 162.909 71.3166 160.414 71.3166C157.595 71.3166 155.5 72.1927 154.128 73.945C152.757 75.6781 152.072 78.2208 152.072 81.5728C152.072 84.6964 152.757 87.1152 154.128 88.8293C155.5 90.5434 157.5 91.4005 160.128 91.4005C161.823 91.4005 163.28 91.0291 164.499 90.2863C165.737 89.5245 166.689 88.4294 167.356 87.0009L174.155 89.0579C172.974 91.8386 171.146 94.0003 168.67 95.543C166.213 97.0857 163.499 97.8571 160.528 97.8571ZM149.9 83.4869V78.2874H171.127V83.4869H149.9ZM180.872 97V66.1457H186.958V73.6593L186.215 72.6879C186.596 71.6594 187.1 70.7262 187.729 69.8882C188.377 69.0311 189.148 68.3264 190.043 67.7741C190.805 67.2598 191.643 66.8599 192.557 66.5742C193.49 66.2695 194.443 66.0885 195.414 66.0314C196.385 65.9552 197.328 65.9933 198.242 66.1457V72.5737C197.328 72.307 196.271 72.2213 195.071 72.3165C193.89 72.4118 192.824 72.7451 191.871 73.3164C190.919 73.8307 190.138 74.4878 189.529 75.2877C188.938 76.0876 188.5 77.0018 188.215 78.0303C187.929 79.0397 187.786 80.1349 187.786 81.3157V97H180.872ZM225.035 97V82.1442C225.035 81.1729 224.968 80.0968 224.835 78.9159C224.702 77.7351 224.387 76.6019 223.892 75.5162C223.416 74.4116 222.692 73.5069 221.721 72.8022C220.769 72.0975 219.474 71.7452 217.836 71.7452C216.96 71.7452 216.093 71.888 215.236 72.1737C214.379 72.4594 213.598 72.9546 212.893 73.6593C212.208 74.3449 211.655 75.2972 211.236 76.5161C210.817 77.716 210.608 79.2588 210.608 81.1443L206.522 79.4016C206.522 76.7733 207.027 74.3925 208.037 72.2594C209.065 70.1263 210.57 68.4312 212.55 67.1741C214.531 65.8981 216.969 65.26 219.864 65.26C222.15 65.26 224.035 65.6409 225.521 66.4028C227.006 67.1646 228.187 68.136 229.063 69.3168C229.939 70.4976 230.587 71.7547 231.006 73.0879C231.425 74.4211 231.692 75.6877 231.806 76.8875C231.939 78.0684 232.006 79.0302 232.006 79.773V97H225.035ZM203.637 97V66.1457H209.779V75.7162H210.608V97H203.637ZM251.374 97.8571C247.565 97.8571 244.47 97 242.089 95.2859C239.709 93.5717 238.261 91.1624 237.747 88.058L244.775 86.9723C245.137 88.496 245.937 89.6959 247.174 90.572C248.412 91.4481 249.974 91.8862 251.86 91.8862C253.517 91.8862 254.793 91.5624 255.688 90.9148C256.602 90.2482 257.059 89.3436 257.059 88.2008C257.059 87.4961 256.888 86.9342 256.545 86.5152C256.221 86.0772 255.498 85.6582 254.374 85.2582C253.25 84.8582 251.526 84.3535 249.203 83.7441C246.613 83.0584 244.556 82.3251 243.032 81.5443C241.508 80.7443 240.413 79.8016 239.747 78.7159C239.08 77.6303 238.747 76.3162 238.747 74.7734C238.747 72.8498 239.251 71.1738 240.261 69.7453C241.27 68.3169 242.68 67.2218 244.489 66.4599C246.298 65.679 248.432 65.2886 250.888 65.2886C253.288 65.2886 255.412 65.66 257.259 66.4028C259.126 67.1456 260.63 68.2026 261.773 69.5739C262.916 70.9452 263.621 72.5546 263.887 74.4021L256.859 75.6591C256.688 74.3449 256.088 73.3069 255.059 72.5451C254.05 71.7832 252.698 71.3547 251.003 71.2595C249.384 71.1643 248.079 71.4119 247.089 72.0023C246.098 72.5737 245.603 73.3831 245.603 74.4306C245.603 75.021 245.803 75.5258 246.203 75.9448C246.603 76.3638 247.403 76.7828 248.603 77.2018C249.822 77.6208 251.631 78.135 254.031 78.7445C256.488 79.373 258.45 80.0968 259.916 80.9157C261.402 81.7157 262.468 82.6775 263.116 83.8012C263.783 84.9249 264.116 86.2867 264.116 87.8865C264.116 90.991 262.983 93.4289 260.716 95.2002C258.469 96.9714 255.355 97.8571 251.374 97.8571ZM288.457 97C286.419 97.3809 284.42 97.5428 282.458 97.4857C280.515 97.4476 278.772 97.0952 277.23 96.4286C275.687 95.743 274.516 94.6669 273.716 93.2003C273.011 91.8671 272.64 90.5054 272.602 89.115C272.564 87.7247 272.544 86.1534 272.544 84.4011V57.575H279.401V84.0012C279.401 85.2392 279.411 86.3248 279.43 87.258C279.468 88.1913 279.668 88.9531 280.03 89.5435C280.715 90.6863 281.81 91.3243 283.315 91.4576C284.82 91.591 286.534 91.5148 288.457 91.2291V97ZM266.945 71.5452V66.1457H288.457V71.5452H266.945ZM303.72 97.8571C301.491 97.8571 299.606 97.4381 298.063 96.6C296.52 95.743 295.349 94.6097 294.549 93.2003C293.768 91.7909 293.378 90.2387 293.378 88.5436C293.378 87.058 293.625 85.7248 294.121 84.544C294.616 83.3441 295.378 82.3156 296.406 81.4586C297.435 80.5824 298.768 79.8682 300.406 79.3159C301.644 78.9159 303.091 78.5541 304.748 78.2303C306.424 77.9065 308.234 77.6113 310.176 77.3446C312.138 77.059 314.185 76.7542 316.319 76.4304L313.862 77.8303C313.881 75.6972 313.405 74.1259 312.433 73.1165C311.462 72.107 309.824 71.6023 307.519 71.6023C306.129 71.6023 304.786 71.9261 303.491 72.5737C302.196 73.2212 301.291 74.3354 300.777 75.9162L294.492 73.945C295.254 71.3357 296.701 69.2406 298.835 67.6598C300.987 66.079 303.882 65.2886 307.519 65.2886C310.262 65.2886 312.671 65.7362 314.747 66.6313C316.842 67.5265 318.395 68.993 319.404 71.0309C319.956 72.1165 320.29 73.2307 320.404 74.3735C320.518 75.4972 320.575 76.7257 320.575 78.0589V97H314.547V90.3149L315.547 91.4005C314.157 93.6289 312.529 95.2668 310.662 96.3143C308.815 97.3428 306.5 97.8571 303.72 97.8571ZM305.091 92.3718C306.653 92.3718 307.986 92.0957 309.091 91.5434C310.195 90.991 311.071 90.3149 311.719 89.515C312.386 88.715 312.833 87.9627 313.062 87.258C313.424 86.3819 313.624 85.382 313.662 84.2583C313.719 83.1155 313.747 82.1918 313.747 81.4871L315.862 82.1156C313.786 82.4394 312.005 82.7251 310.519 82.9727C309.034 83.2203 307.758 83.4584 306.691 83.6869C305.624 83.8964 304.682 84.1345 303.863 84.4011C303.063 84.6868 302.387 85.0201 301.834 85.4011C301.282 85.782 300.853 86.22 300.549 86.7152C300.263 87.2104 300.12 87.7913 300.12 88.4579C300.12 89.2198 300.311 89.8959 300.691 90.4863C301.072 91.0577 301.625 91.5148 302.348 91.8576C303.091 92.2004 304.005 92.3718 305.091 92.3718ZM341.412 97.8571C338.231 97.8571 335.517 97.1524 333.27 95.743C331.022 94.3145 329.299 92.3718 328.099 89.9149C326.918 87.458 326.318 84.6773 326.299 81.5728C326.318 78.4112 326.937 75.6115 328.156 73.1736C329.394 70.7167 331.146 68.793 333.413 67.4027C335.679 65.9933 338.374 65.2886 341.498 65.2886C345.002 65.2886 347.964 66.1742 350.383 67.9455C352.82 69.6977 354.411 72.0975 355.154 75.1448L348.297 77.0018C347.764 75.3448 346.878 74.0592 345.64 73.145C344.402 72.2118 342.993 71.7452 341.412 71.7452C339.622 71.7452 338.146 72.1737 336.984 73.0308C335.822 73.8688 334.965 75.0306 334.413 76.5161C333.86 78.0017 333.584 79.6873 333.584 81.5728C333.584 84.5059 334.241 86.8771 335.555 88.6865C336.869 90.4958 338.822 91.4005 341.412 91.4005C343.24 91.4005 344.678 90.9815 345.726 90.1435C346.792 89.3055 347.592 88.096 348.126 86.5152L355.154 88.0865C354.201 91.2291 352.535 93.6479 350.154 95.343C347.773 97.019 344.859 97.8571 341.412 97.8571ZM360.821 97L360.878 55.8609H367.849V81.0015L379.134 66.1457H387.733L375.763 81.5728L388.762 97H379.648L367.849 82.1442V97H360.821Z" fill="black"/>
<path d="M51.2902 68.726L31.4005 78.6708L11.5108 68.726L31.4005 58.7811L51.2902 68.726Z" stroke="url(#paint0_linear_23_12)" stroke-width="6.63403" stroke-linecap="round" stroke-linejoin="round"/>
<path d="M51.2902 88.0259L31.4005 97.9708L11.5108 88.0259L31.4005 78.0811L51.2902 88.0259Z" stroke="url(#paint1_linear_23_12)" stroke-width="6.63403" stroke-linecap="round" stroke-linejoin="round"/>
<defs>
<linearGradient id="paint0_linear_23_12" x1="41.3454" y1="58.7811" x2="21.4557" y2="78.6708" gradientUnits="userSpaceOnUse">
<stop stop-color="#0057FF"/>
<stop offset="1" stop-color="#0075FF"/>
</linearGradient>
<linearGradient id="paint1_linear_23_12" x1="41.3454" y1="78.0811" x2="21.4557" y2="97.9708" gradientUnits="userSpaceOnUse">
<stop stop-color="#0057FF"/>
<stop offset="1" stop-color="#0075FF"/>
</linearGradient>
</defs>
</svg>
